<svg width="10" height="19" viewBox="0 0 10 19" fill="none" xmlns="http://www.w3.org/2000/svg">
<g clip-path="url(#clip0_7500_4)">
<path d="M8.46 0H1.24C0.56 0 0 0.56 0 1.24V17.23C0 17.91 0.56 18.47 1.24 18.47H8.46C9.14 18.47 9.7 17.91 9.7 17.23V1.24C9.7 0.56 9.14 0 8.46 0ZM4.85 0.63C5.06 0.63 5.22 0.8 5.22 1C5.22 1.2 5.05 1.37 4.85 1.37C4.65 1.37 4.48 1.2 4.48 1C4.48 0.8 4.65 0.63 4.85 0.63ZM6.99 17.53H2.71V16.86H6.99V17.53ZM8.87 15.92H0.83V2.01H8.87V15.92Z" fill="#A9A9A9"/>
</g>
<defs>
<clipPath id="clip0_7500_4">
<rect width="9.7" height="18.47" fill="white"/>
</clipPath>
</defs>
</svg>
